<svg data-v-423bf9ae="" xmlns="http://www.w3.org/2000/svg" viewBox="0 0 627 90" class="iconLeft"><!----><!----><!----><g data-v-423bf9ae="" id="1355c351-c142-4854-9bfe-192720c088c2" fill="black" transform="matrix(4.773269805623416,0,0,4.773269805623416,134.58071505238797,6.980906169483944)"><path d="M5.04 2.21L1.13 2.21L1.13 11.48L5.04 11.48C7.25 11.48 9.30 9.74 9.30 6.85C9.30 3.95 7.25 2.21 5.04 2.21ZM5.00 10.49L2.18 10.49L2.18 3.21L5.00 3.21C6.97 3.21 8.25 4.86 8.25 6.85C8.25 8.83 6.97 10.49 5.00 10.49ZM13.80 4.37C11.66 4.37 10.33 5.98 10.33 7.98C10.33 9.98 11.66 11.59 13.80 11.59C15.95 11.59 17.28 9.98 17.28 7.98C17.28 5.98 15.95 4.37 13.80 4.37ZM13.80 10.64C12.25 10.64 11.38 9.42 11.38 7.98C11.38 6.54 12.25 5.32 13.80 5.32C15.36 5.32 16.23 6.54 16.23 7.98C16.23 9.42 15.36 10.64 13.80 10.64ZM18.66 1.68L18.66 11.48L19.71 11.48L19.71 7.45C19.71 6.19 20.66 5.32 21.83 5.32C22.97 5.32 23.79 6.16 23.79 7.43L23.79 11.48L24.84 11.48L24.84 7.41C24.84 5.42 23.48 4.37 22.04 4.37C20.90 4.37 20.22 4.90 19.71 5.57L19.71 1.68ZM29.71 10.64C28.29 10.64 27.38 9.65 27.23 8.40L33.10 8.40L33.10 7.98C33.10 5.98 31.77 4.37 29.62 4.37C27.48 4.37 26.15 5.98 26.15 7.98C26.15 9.98 27.55 11.59 29.69 11.59C31.36 11.59 32.40 10.72 32.89 9.46L31.74 9.46C31.36 10.16 30.69 10.64 29.71 10.64ZM29.62 5.32C30.97 5.32 31.81 6.23 32.00 7.42L27.24 7.42C27.44 6.23 28.28 5.32 29.62 5.32ZM38.01 4.37C36.27 4.37 35.57 5.73 35.43 6.20L35.43 4.48L34.38 4.48L34.38 11.48L35.43 11.48L35.43 8.40C35.43 6.86 36.39 5.42 37.95 5.42L38.08 5.42L38.08 4.37ZM41.02 11.48L41.02 5.40L42.63 5.40L42.63 4.48L41.02 4.48L41.02 1.97L39.97 1.97L39.97 4.48L38.54 4.48L38.54 5.40L39.97 5.40L39.97 11.48ZM49.78 4.48L48.64 4.48L46.34 10.22L44.09 4.48L42.92 4.48L45.78 11.38L44.51 14.25L45.64 14.25ZM56.53 3.70L59.04 11.48L60.23 11.48L63.11 2.21L62.01 2.21L59.63 10.00L57.13 2.21L55.93 2.21L53.44 10.00L51.06 2.21L49.95 2.21L52.84 11.48L54.03 11.48ZM66.81 10.64C65.39 10.64 64.48 9.65 64.33 8.40L70.20 8.40L70.20 7.98C70.20 5.98 68.87 4.37 66.72 4.37C64.58 4.37 63.25 5.98 63.25 7.98C63.25 9.98 64.65 11.59 66.79 11.59C68.46 11.59 69.50 10.72 69.99 9.46L68.84 9.46C68.46 10.16 67.79 10.64 66.81 10.64ZM66.72 5.32C68.07 5.32 68.91 6.23 69.10 7.42L64.34 7.42C64.54 6.23 65.38 5.32 66.72 5.32ZM75.04 4.37C73.88 4.37 73.05 4.86 72.53 5.61L72.53 1.68L71.48 1.68L71.48 11.48L72.53 11.48L72.53 10.36C73.05 11.12 73.88 11.59 75.04 11.59C77.08 11.59 78.43 9.98 78.43 7.98C78.43 5.98 77.08 4.37 75.04 4.37ZM74.90 10.64C73.35 10.64 72.48 9.42 72.48 7.98C72.48 6.54 73.35 5.32 74.90 5.32C76.45 5.32 77.38 6.54 77.38 7.98C77.38 9.42 76.45 10.64 74.90 10.64ZM83.80 2.21L79.90 2.21L79.90 11.48L83.80 11.48C86.02 11.48 88.06 9.74 88.06 6.85C88.06 3.95 86.02 2.21 83.80 2.21ZM83.76 10.49L80.95 10.49L80.95 3.21L83.76 3.21C85.74 3.21 87.01 4.86 87.01 6.85C87.01 8.83 85.74 10.49 83.76 10.49ZM92.65 10.64C91.24 10.64 90.33 9.65 90.17 8.40L96.04 8.40L96.04 7.98C96.04 5.98 94.71 4.37 92.57 4.37C90.43 4.37 89.10 5.98 89.10 7.98C89.10 9.98 90.50 11.59 92.64 11.59C94.30 11.59 95.34 10.72 95.83 9.46L94.68 9.46C94.30 10.16 93.63 10.64 92.65 10.64ZM92.57 5.32C93.91 5.32 94.75 6.23 94.95 7.42L90.19 7.42C90.38 6.23 91.22 5.32 92.57 5.32ZM101.99 4.48L99.79 10.36L97.58 4.48L96.43 4.48L99.18 11.48L100.41 11.48L103.14 4.48Z"></path></g><!----><g data-v-423bf9ae="" id="787f1cfa-5cd8-4f6b-ab11-a78e46801ce8" transform="matrix(7.6446107031373725,0,0,7.6446107031373725,-1.0038866382810312,-16.040063288602823)" stroke="none" fill="black"><path style="line-height:normal;text-indent:0;text-align:start;text-decoration-line:none;text-decoration-style:solid;text-decoration-color:#000;text-transform:none;isolation:auto;mix-blend-mode:normal" d="M8.766 2.113L5.718 13.48l1.518.406L10.282 2.52zm3.158 1.963L10.803 5.2 13.603 8l-2.8 2.801 1.123 1.123 2.799-2.801L15.847 8l-1.122-1.12zm-7.85 0l-2.799 2.8L.153 7.998l1.122 1.123 2.801 2.799 1.121-1.12-2.8-2.802 2.8-2.8z" color="#000" font-weight="400" font-family="sans-serif" white-space="normal" overflow="visible"></path><style></style></g><!----></svg>